<?xml version="1.0" ?><!DOCTYPE svg  PUBLIC '-//W3C//DTD SVG 1.1//EN'  'http://www.w3.org/Graphics/SVG/1.1/DTD/svg11.dtd'><svg height="6.82666in" style="shape-rendering:geometricPrecision; text-rendering:geometricPrecision; image-rendering:optimizeQuality; fill-rule:evenodd; clip-rule:evenodd" viewBox="0 0 6.82666 6.82666" width="6.82666in" xml:space="preserve" xmlns="http://www.w3.org/2000/svg" xmlns:xlink="http://www.w3.org/1999/xlink"><defs><style type="text/css">
   <![CDATA[
    .fil1 {fill:none}
    .fil0 {fill:#212121;fill-rule:nonzero}
   ]]>
  </style></defs><g id="Layer_x0020_1"><path class="fil0" d="M5.71516 2.00822c-0.0389331,0.0132677 -0.0783937,0.0254291 -0.118327,0.0364173 -0.0986024,0.0271378 -0.199539,0.047185 -0.301929,0.0593189l3.93701e-006 4.72441e-005c-0.029248,0.00346457 -0.0557717,-0.017437 -0.0592362,-0.046685 -0.00272441,-0.0230118 0.0096378,-0.0443346 0.0292756,-0.0540709 0.097374,-0.0588268 0.183272,-0.134677 0.253878,-0.223484 0.0412283,-0.0518543 0.0771969,-0.108059 0.10715,-0.167811 -0.0603071,0.0300669 -0.122248,0.0572835 -0.185693,0.0814528 -0.108575,0.0413622 -0.221874,0.0739291 -0.339236,0.0967598l1.9685e-005 9.05512e-005c-0.0199449,0.00387795 -0.0394528,-0.00390551 -0.0514843,-0.0186024 -0.0877165,-0.0928819 -0.194453,-0.168228 -0.31376,-0.219843 -0.115772,-0.0500827 -0.243917,-0.0779488 -0.378563,-0.0779488 -0.262992,0 -0.501224,0.106732 -0.673697,0.279205 -0.172472,0.172472 -0.279205,0.410705 -0.279205,0.673697 0,0.0380236 0.00216535,0.0749055 0.00626378,0.110693 0.0042126,0.036815 0.0102992,0.0723858 0.0180236,0.106791l-0.051874 0.0116654 0.0520354 -0.011685c0.00645276,0.0287362 -0.0116142,0.0572677 -0.0403504,0.0637205 -0.00630315,0.00141732 -0.0125945,0.00164567 -0.0186496,0.000850394 -0.417823,-0.0216693 -0.811957,-0.130717 -1.16471,-0.309437 -0.342067,-0.173307 -0.645346,-0.412165 -0.893724,-0.70039 -0.0247559,0.0515669 -0.0449921,0.105925 -0.0602323,0.162476 -0.0213976,0.0794094 -0.0327717,0.163114 -0.0327717,0.249461 0,0.162433 0.040622,0.315421 0.112114,0.449024 0.0742126,0.138677 0.18174,0.256839 0.311685,0.343343l-0.029374 0.044374 0.0295551 -0.0443937c0.0245157,0.0163228 0.0311614,0.0494331 0.0148386,0.0739488 -0.0114843,0.017252 -0.0312874,0.0256535 -0.0505551,0.0234331 -0.0832638,-0.00254331 -0.163783,-0.0152244 -0.240732,-0.0364803 -0.0524134,-0.0144803 -0.103122,-0.0328819 -0.151886,-0.0547165 0.0155709,0.199669 0.0925827,0.382063 0.211996,0.528303 0.136929,0.167689 0.329496,0.287992 0.54902,0.33248l-0.0104173 0.0520827 0.0105945 -0.0522717c0.0288661,0.00585039 0.0475276,0.034 0.0416772,0.0628661 -0.00443701,0.0219016 -0.0217126,0.0379213 -0.0423976,0.0418268 -0.0428465,0.0112008 -0.0875984,0.0198661 -0.133677,0.0257992 -0.0472598,0.00608661 -0.0944724,0.00922835 -0.140984,0.00922835 -0.0323937,0 -0.0658189,-0.00157874 -0.100476,-0.00477559l-0.00855512 -0.000822835c0.0669016,0.15672 0.174461,0.291843 0.309437,0.392217 0.15437,0.114803 0.344535,0.184181 0.550669,0.188504l-0.00104331 0.053126 0.00111811 -0.0533228c0.0294488,0.000614173 0.0528189,0.0249921 0.0522047,0.0544409 -0.00038189,0.0183701 -0.0100157,0.034374 -0.0243543,0.0436654 -0.179189,0.139488 -0.381602,0.250185 -0.600252,0.325315 -0.212937,0.0731693 -0.441409,0.11285 -0.678988,0.11285 -0.00703937,0 -0.0141142,-3.54331e-005 -0.0212244,-0.000110236 0.16924,0.0907717 0.348531,0.164713 0.535803,0.219535 0.249906,0.0731614 0.514654,0.112429 0.789366,0.112429 0.835287,0 1.49626,-0.317878 1.96648,-0.78802 0.553079,-0.552996 0.843091,-1.3163 0.843091,-2.02111 0,-0.00111417 3.93701e-005,-0.00221654 0.000106299,-0.00331102l-0.00293701 -0.125835 -0.00019685 3.93701e-006c-0.000464567,-0.0199134 0.0100512,-0.0375394 0.0260197,-0.0470709 0.0947205,-0.0684606 0.183118,-0.145193 0.264181,-0.229161 0.0401102,-0.0415433 0.0784449,-0.0849488 0.114894,-0.130083zm-0.14624 -0.0660787c0.0936811,-0.0257795 0.184417,-0.0582244 0.271413,-0.0965512 0.0169606,-0.0096063 0.0385906,-0.00953543 0.0559134,0.00201181 0.0245039,0.0163346 0.031126,0.0494528 0.0147913,0.0739567 -0.0689488,0.103425 -0.147354,0.200638 -0.234102,0.290492 -0.0798701,0.0827323 -0.166756,0.158965 -0.25978,0.227783l0.0022874 0.0979961c0.000212598,0.00191732 0.000318898,0.00387008 0.000318898,0.00584646 0,0.73124 -0.300764,1.52303 -0.874343,2.09653 -0.488862,0.488783 -1.1753,0.819272 -2.04189,0.819272 -0.284134,0 -0.558843,-0.0408701 -0.818949,-0.11702 -0.268083,-0.0784843 -0.520016,-0.194339 -0.750201,-0.341421 -0.0183819,-0.0100787 -0.0298425,-0.0305394 -0.0273858,-0.0526654 0.00324803,-0.0292717 0.0296181,-0.050374 0.0588898,-0.047126l-1.1811e-005 9.44882e-005c0.0391024,0.00433858 0.0777992,0.00761417 0.116228,0.00977165 0.0374016,0.00209843 0.0764764,0.00317323 0.117484,0.00317323 0.22565,0 0.442476,-0.0376299 0.644406,-0.107016 0.164378,-0.0564843 0.318815,-0.133866 0.460059,-0.228992 -0.173213,-0.0273307 -0.332488,-0.0963346 -0.46715,-0.196484 -0.174291,-0.12961 -0.307461,-0.311378 -0.376433,-0.522402 -0.00389764,-0.00929921 -0.00520472,-0.019811 -0.00319685,-0.0304606 0.00546063,-0.0289449 0.0333543,-0.0479803 0.0622992,-0.0425197l-2.3622e-005 0.000133858c0.0302283,0.00570079 0.0599764,0.00988976 0.0893858,0.0126024 0.0286024,0.0026378 0.0588583,0.00394094 0.0908937,0.00394094 0.0105709,0 0.021063,-0.000161417 0.0314685,-0.000468504 -0.151374,-0.0681102 -0.284008,-0.170717 -0.38778,-0.297795 -0.149362,-0.182913 -0.239094,-0.416402 -0.239094,-0.67061l0 -0.0120157c-5.11811e-005,-0.00880709 0.00207874,-0.017748 0.00663386,-0.0260118 0.0142205,-0.0257913 0.0466614,-0.0351693 0.0724528,-0.0209488l-4.33071e-005 7.87402e-005c0.0663543,0.0365827 0.136929,0.0659488 0.210768,0.0863465 0.013248,0.00366142 0.0266102,0.0070315 0.0400748,0.0101181 -0.0785394,-0.0760709 -0.145417,-0.16439 -0.197571,-0.261846 -0.0797323,-0.149 -0.125035,-0.319055 -0.125035,-0.499024 0,-0.0955039 0.0126772,-0.188445 0.0365276,-0.276957 0.0240039,-0.0890748 0.0595157,-0.173748 0.104972,-0.25211 0.0032874,-0.0070315 0.00817323,-0.0134528 0.0145906,-0.018689 0.0228228,-0.0186181 0.0564213,-0.0152087 0.0750394,0.00761417l-0.0413268 0.0337126 0.041248 -0.0335394c0.247949,0.303972 0.557705,0.554799 0.91026,0.733421 0.322055,0.163165 0.67974,0.266063 1.05855,0.294193 -0.00262992,-0.0163071 -0.0048937,-0.0326457 -0.00676772,-0.0490118 -0.00464567,-0.0405591 -0.00709843,-0.0814921 -0.00709843,-0.12278 0,-0.292437 0.118677,-0.557335 0.310457,-0.749114 0.19178,-0.19178 0.456677,-0.310457 0.749114,-0.310457 0.148823,0 0.291252,0.0311457 0.42065,0.087122 0.124945,0.0540512 0.237256,0.131165 0.330988,0.225638 0.100929,-0.0211693 0.198925,-0.0501102 0.293472,-0.0861299 0.104539,-0.0398268 0.204583,-0.0882244 0.299496,-0.14426 0.0131339,-0.00885827 0.030063,-0.0117992 0.0462992,-0.00653937 0.0280197,0.00907874 0.0433701,0.0391614 0.0342913,0.0671811l-0.00015748 -5.11811e-005c-0.0400433,0.1235 -0.10152,0.236976 -0.180142,0.335862 -0.032374,0.0407205 -0.0676929,0.0790079 -0.105646,0.114543 0.0243583,-0.00569291 0.0485039,-0.0118386 0.0724094,-0.0184173z"/></g><rect class="fil1" height="6.82666" width="6.82666"/></svg>